<?xml version="1.0" encoding="UTF-8"?>
<svg width="15px" height="15px" viewBox="0 0 15 15" version="1.1" xmlns="http://www.w3.org/2000/svg" xmlns:xlink="http://www.w3.org/1999/xlink">
    <!-- Generator: sketchtool 44.1 (41455) - http://www.bohemiancoding.com/sketch -->
    <title>common/ico_instagram</title>
    <desc>Created with sketchtool.</desc>
    <defs></defs>
    <g id="Symbols" stroke="none" stroke-width="1" fill="none" fill-rule="evenodd">
        <g id="nav" transform="translate(-85.000000, -758.000000)" fill="#4A4A4A">
            <path d="M92.5000149,758 C94.5368777,758 94.7922857,758.008634 95.5922404,758.045133 C96.390528,758.081544 96.9357297,758.20834 97.412785,758.393755 C97.9059763,758.585393 98.3242332,758.841843 98.74121,759.25879 C99.158157,759.675767 99.414607,760.094024 99.6062746,760.587215 C99.7916605,761.06427 99.9184564,761.609472 99.9548667,762.40776 C99.9913663,763.207714 100,763.463122 100,765.500015 C100,767.536878 99.9913663,767.792286 99.9548667,768.59224 C99.9184564,769.390528 99.7916605,769.93573 99.6062746,770.412785 C99.414607,770.905976 99.158157,771.324233 98.74121,771.74121 C98.3242332,772.158157 97.9059763,772.414607 97.412785,772.606275 C96.9357297,772.79166 96.390528,772.918456 95.5922404,772.954867 C94.7922857,772.991366 94.5368777,773 92.5000149,773 C90.4631223,773 90.2077143,772.991366 89.4077596,772.954867 C88.609472,772.918456 88.0642703,772.79166 87.587215,772.606275 C87.0940237,772.414607 86.6757668,772.158157 86.25879,771.74121 C85.841843,771.324233 85.585393,770.905976 85.3937552,770.412785 C85.2083395,769.93573 85.0815436,769.390528 85.0451333,768.59224 C85.0086337,767.792286 85,767.536878 85,765.500015 C85,763.463122 85.0086337,763.207714 85.0451333,762.40776 C85.0815436,761.609472 85.2083395,761.06427 85.3937552,760.587215 C85.585393,760.094024 85.841843,759.675767 86.25879,759.25879 C86.6757668,758.841843 87.0940237,758.585393 87.587215,758.393755 C88.0642703,758.20834 88.609472,758.081544 89.4077596,758.045133 C90.2077143,758.008634 90.4631223,758 92.5000149,758 Z M92.5000149,759.351349 C90.4974188,759.351349 90.2602011,759.359 89.4693564,759.395083 C88.7381138,759.428427 88.3409945,759.550608 88.0767147,759.653319 C87.726634,759.789374 87.4767933,759.951896 87.2143593,760.214359 C86.9518955,760.476793 86.789374,760.726634 86.6533192,761.076715 C86.5506082,761.340994 86.4284268,761.738114 86.395083,762.469356 C86.3590002,763.260201 86.3513489,763.497419 86.3513489,765.500015 C86.3513489,767.502581 86.3590002,767.739799 86.395083,768.530644 C86.4284268,769.261886 86.5506082,769.659006 86.6533192,769.923285 C86.789374,770.273366 86.9519253,770.523207 87.2143593,770.785641 C87.4767933,771.048104 87.726634,771.210626 88.0767147,771.346681 C88.3409945,771.449392 88.7381138,771.571573 89.4693564,771.604917 C90.2601118,771.641 90.49727,771.648651 92.5000149,771.648651 C94.50273,771.648651 94.739918,771.641 95.5306436,771.604917 C96.2618862,771.571573 96.6590055,771.449392 96.9232853,771.346681 C97.273366,771.210626 97.5232067,771.048104 97.7856407,770.785641 C98.0481045,770.523207 98.210626,770.273366 98.3466808,769.923285 C98.4493918,769.659006 98.5715732,769.261886 98.604917,768.530644 C98.6409998,767.739799 98.6486511,767.502581 98.6486511,765.500015 C98.6486511,763.497419 98.6409998,763.260201 98.604917,762.469356 C98.5715732,761.738114 98.4493918,761.340994 98.3466808,761.076715 C98.210626,760.726634 98.0481045,760.476793 97.7856407,760.214359 C97.5232067,759.951896 97.273366,759.789374 96.9232853,759.653319 C96.6590055,759.550608 96.2618862,759.428427 95.5306436,759.395083 C94.7397989,759.359 94.5025812,759.351349 92.5000149,759.351349 Z M92.5000149,761.648651 C94.627055,761.648651 96.3513489,763.372945 96.3513489,765.500015 C96.3513489,767.627055 94.627055,769.351349 92.5000149,769.351349 C90.372945,769.351349 88.6486511,767.627055 88.6486511,765.500015 C88.6486511,763.372945 90.372945,761.648651 92.5000149,761.648651 Z M92.5000149,768 C93.8807183,768 95,766.880718 95,765.500015 C95,764.119282 93.8807183,763 92.5000149,763 C91.1192817,763 90,764.119282 90,765.500015 C90,766.880718 91.1192817,768 92.5000149,768 Z M97.4035261,761.49649 C97.4035261,761.993552 97.0005716,762.396476 96.50351,762.396476 C96.0064782,762.396476 95.6035237,761.993552 95.6035237,761.49649 C95.6035237,760.999428 96.0064782,760.596474 96.50351,760.596474 C97.0005716,760.596474 97.4035261,760.999428 97.4035261,761.49649 Z" id="common/ico_instagram"></path>
        </g>
    </g>
</svg>