<?xml version="1.0" encoding="UTF-8"?>
<svg width="15px" height="15px" viewBox="0 0 15 15" version="1.1" xmlns="http://www.w3.org/2000/svg" xmlns:xlink="http://www.w3.org/1999/xlink">
    <!-- Generator: sketchtool 44.1 (41455) - http://www.bohemiancoding.com/sketch -->
    <title>common/ico_facebook</title>
    <desc>Created with sketchtool.</desc>
    <defs></defs>
    <g id="Symbols" stroke="none" stroke-width="1" fill="none" fill-rule="evenodd">
        <g id="nav" transform="translate(-19.000000, -758.000000)" fill="#4A4A4A">
            <path d="M27.011986,773 L19.8278849,773 C19.3705227,773 19,772.629247 19,772.172063 L19,758.827878 C19,758.370578 19.3705809,758 19.8278849,758 L33.1721734,758 C33.6293609,758 34,758.370578 34,758.827878 L34,772.172063 C34,772.629306 33.6293027,773 33.1721734,773 L29.3497829,773 L29.3497829,767.191173 L31.2995379,767.191173 L31.591486,764.927371 L29.3497829,764.927371 L29.3497829,763.482075 C29.3497829,762.826652 29.5317849,762.380003 30.471653,762.380003 L31.6704098,762.379479 L31.6704098,760.354716 C31.4630894,760.327128 30.7514949,760.265491 29.92361,760.265491 C28.1952607,760.265491 27.011986,761.320477 27.011986,763.257878 L27.011986,764.927371 L25.0572256,764.927371 L25.0572256,767.191173 L27.011986,767.191173 L27.011986,773 L27.011986,773 Z" id="common/ico_facebook"></path>
        </g>
    </g>
</svg>