<svg width="15" height="15" viewBox="0 0 15 15" xmlns="http://www.w3.org/2000/svg"><title>common/ico_instagram</title><path d="M7.5 0c2.037 0 2.292.009 3.092.045.799.037 1.344.163 1.82.349.494.191.912.448 1.33.865.416.417.673.835.864 1.328.186.477.312 1.022.349 1.82.036.8.045 1.056.045 3.093s-.009 2.292-.045 3.092c-.037.799-.163 1.344-.349 1.82a3.677 3.677 0 0 1-.865 1.33 3.677 3.677 0 0 1-1.328.864c-.477.186-1.022.312-1.82.349-.8.036-1.056.045-3.093.045s-2.292-.009-3.092-.045c-.799-.037-1.344-.163-1.82-.349a3.677 3.677 0 0 1-1.33-.865 3.676 3.676 0 0 1-.864-1.328c-.186-.477-.312-1.022-.349-1.82C.01 9.792 0 9.536 0 7.5s.009-2.292.045-3.092c.037-.799.163-1.344.349-1.82.191-.494.448-.912.865-1.33A3.676 3.676 0 0 1 2.587.395C3.064.208 3.61.082 4.407.045 5.208.01 5.464 0 7.5 0zm0 1.351c-2.003 0-2.24.008-3.03.044-.732.033-1.129.156-1.393.258-.35.136-.6.299-.863.561a2.323 2.323 0 0 0-.56.863c-.103.264-.226.661-.259 1.392-.036.791-.044 1.028-.044 3.031s.008 2.24.044 3.03c.033.732.156 1.129.258 1.393.136.35.299.6.561.863.263.262.513.425.863.56.264.103.661.226 1.392.259.791.036 1.028.044 3.031.044s2.24-.008 3.03-.044c.732-.033 1.129-.156 1.393-.258.35-.136.6-.299.863-.561.262-.263.425-.513.56-.863.103-.264.226-.661.259-1.392.036-.791.044-1.028.044-3.031s-.008-2.24-.044-3.03c-.033-.732-.156-1.129-.258-1.393-.136-.35-.299-.6-.561-.863a2.323 2.323 0 0 0-.863-.56c-.264-.103-.661-.226-1.392-.259-.791-.036-1.028-.044-3.031-.044zm0 2.298a3.851 3.851 0 1 1 0 7.702 3.851 3.851 0 0 1 0-7.702zM7.5 10a2.5 2.5 0 1 0 0-5 2.5 2.5 0 0 0 0 5zm4.904-6.504a.9.9 0 1 1-1.8 0 .9.9 0 0 1 1.8 0z" fill="#4A4A4A" fill-rule="evenodd"/></svg>