<?xml version="1.0" encoding="utf-8"?>
<!-- Generator: Adobe Illustrator 16.0.4, SVG Export Plug-In . SVG Version: 6.00 Build 0)  -->
<!DOCTYPE svg PUBLIC "-//W3C//DTD SVG 1.1//EN" "http://www.w3.org/Graphics/SVG/1.1/DTD/svg11.dtd">
<svg version="1.1" id="レイヤー_1" xmlns="http://www.w3.org/2000/svg" xmlns:xlink="http://www.w3.org/1999/xlink" x="0px"
	 y="0px" width="15px" height="15px" viewBox="0 0 15 15" enable-background="new 0 0 15 15" xml:space="preserve">
<title>common/ico_instagram</title>
<desc>Created with sketchtool.</desc>
<path fill="#4A4A4A" d="M12.838,8.177v2.608c0,1.131-0.925,2.057-2.056,2.057H4.381c-1.131,0-2.057-0.926-2.057-2.057V4.384
	c0-1.131,0.926-2.056,2.057-2.056h2.608V0.566H4.381c-2.106,0-3.819,1.713-3.819,3.818v6.401c0,2.105,1.712,3.818,3.819,3.818h6.401
	c2.105,0,3.818-1.713,3.818-3.818V8.177H12.838z"/>
<path fill="#4A4A4A" d="M13.567,0.562H9.078c-0.57,0-0.707,0.33-0.304,0.733l1.925,1.925L6.697,7.223
	c-0.344,0.344-0.344,0.902,0,1.246C6.869,8.641,7.094,8.727,7.32,8.727s0.452-0.086,0.623-0.258l4.004-4.002l1.925,1.925
	c0.403,0.403,0.732,0.266,0.732-0.304V1.599C14.604,1.029,14.137,0.562,13.567,0.562z"/>
</svg>
