<?xml version="1.0" encoding="utf-8"?>
<!-- Generator: Adobe Illustrator 16.0.4, SVG Export Plug-In . SVG Version: 6.00 Build 0)  -->
<!DOCTYPE svg PUBLIC "-//W3C//DTD SVG 1.1//EN" "http://www.w3.org/Graphics/SVG/1.1/DTD/svg11.dtd">
<svg version="1.1" id="レイヤー_1" xmlns="http://www.w3.org/2000/svg" xmlns:xlink="http://www.w3.org/1999/xlink" x="0px"
	 y="0px" width="795.639px" height="159.715px" viewBox="0 0 795.639 159.715" enable-background="new 0 0 795.639 159.715"
	 xml:space="preserve">
<g>
	<polygon fill="#18264A" points="68.031,58.957 34.085,0 0,58.876 31.18,58.914 31.131,101.517 1.683,101.482 1.677,107.151 
		31.124,107.186 31.079,145.194 0.481,154.213 2.085,159.651 67.341,140.417 65.737,134.978 36.75,143.522 36.793,107.193 
		66.241,107.228 66.247,101.559 36.8,101.524 36.85,58.92 	"/>
	<polygon fill="#18264A" points="153.252,80.826 153.259,75.157 101.941,75.096 99.337,58.994 139.889,59.042 139.896,53.373 
		98.42,53.324 91.184,8.592 85.587,9.497 92.676,53.317 75.331,53.297 75.324,58.966 93.593,58.988 96.197,75.089 75.305,75.064 
		75.299,80.734 97.114,80.76 104.058,123.684 75.237,132.178 76.841,137.617 104.971,129.326 109.886,159.715 115.482,158.811 
		110.452,127.709 151.614,115.577 150.011,110.139 109.539,122.069 102.858,80.766 	"/>
	<path fill="#18264A" d="M19.763,124.452c0.004-3.271-2.644-5.924-5.913-5.928c-3.27-0.004-5.923,2.644-5.927,5.913
		c-0.004,3.271,2.644,5.924,5.913,5.929C17.105,130.369,19.759,127.721,19.763,124.452"/>
	<path fill="#18264A" d="M48.113,124.485c-0.004,3.271,2.644,5.923,5.913,5.927c3.27,0.004,5.924-2.643,5.928-5.913
		c0.004-3.27-2.644-5.924-5.913-5.928C50.771,118.568,48.117,121.215,48.113,124.485"/>
	<path fill="#18264A" d="M117.403,33.805c6.953,0.008,12.598-5.623,12.604-12.576c0.01-6.954-5.621-12.598-12.575-12.606
		c-6.954-0.008-12.597,5.622-12.605,12.576C104.818,28.153,110.449,33.797,117.403,33.805"/>
	<path fill="#18264A" d="M254.672,80.703l77.329,0.091l0.007-5.669l-72.55-0.086l7.062-8.357l45.062,0.054l0.007-5.669l0.026-22.37
		l0.002-1.684l0.033-29.168l-5.668-0.006l-63.209-0.075l-0.069,58.891l5.67,0.006l10.73,0.013l-7.062,8.357l-29.784-0.036
		l-0.006,5.67l25.004,0.029l-25.039,29.63l4.33,3.66l12.97-15.349l21.742,0.026l-0.064,53.818l5.67,0.006l0.063-53.817l20.742,0.024
		l-0.063,53.817l5.67,0.007l0.063-53.817l32.97,0.039l-0.063,53.817l5.669,0.007l0.07-59.487l-5.67-0.006l-34.679-0.041l-3.96-0.005
		l-43.374-0.053L254.672,80.703z M305.953,33.021l-57.54-0.068l0.023-19.513l57.539,0.068L305.953,33.021z M248.38,60.992
		l0.026-22.37l57.539,0.068l-0.025,22.37l-42.029-0.05L248.38,60.992z"/>
	<path fill="#18264A" d="M212.099,7.727c-6.953-0.008-12.598,5.623-12.605,12.577c-0.009,6.953,5.622,12.597,12.576,12.606
		c6.954,0.008,12.598-5.623,12.605-12.577C224.684,13.379,219.053,7.735,212.099,7.727"/>
	<path fill="#18264A" d="M190.896,66.593c6.954,0.008,12.598-5.622,12.604-12.576c0.01-6.954-5.621-12.598-12.575-12.606
		c-6.953-0.008-12.598,5.622-12.605,12.576C178.311,60.941,183.941,66.585,190.896,66.593"/>
	<path fill="#18264A" d="M199.387,110.138c-11.672-0.015-21.146,9.437-21.159,21.109c-0.014,11.672,9.438,21.145,21.109,21.158
		c11.672,0.015,21.146-9.437,21.159-21.108S211.059,110.153,199.387,110.138"/>
	<polygon fill="#954024" points="381.265,85.512 447.833,6.738 442.554,2.276 375.984,81.05 375.979,81.046 371.519,86.327 
		454.926,156.811 459.388,151.531 	"/>
	<path fill="#954024" d="M477.367,5.736c4.911,4.923,4.9,12.896-0.021,17.807c-4.923,4.911-12.896,4.901-17.807-0.021
		c-4.911-4.923-4.902-12.896,0.021-17.807C464.483,0.804,472.455,0.813,477.367,5.736"/>
	<path fill="#954024" d="M491.17,37.399c4.911,4.923,4.9,12.896-0.021,17.807c-4.923,4.911-12.896,4.901-17.807-0.021
		c-4.911-4.923-4.9-12.895,0.021-17.807C478.286,32.467,486.258,32.476,491.17,37.399"/>
	<path fill="#954024" d="M591.041,23.691c4.923-4.912,4.933-12.884,0.021-17.807c-4.912-4.922-12.885-4.932-17.808-0.021
		c-4.923,4.911-4.932,12.884-0.021,17.807C578.145,28.593,586.118,28.602,591.041,23.691"/>
	<path fill="#954024" d="M602.628,63.987l-59.667-0.07l0.072-61.778l-6.59-0.007l-0.073,61.777l-0.009,6.59l66.259,0.078
		l-0.104,88.242c26.187,0.03,47.44-21.173,47.471-47.359C650.019,85.272,628.814,64.018,602.628,63.987"/>
	<path fill="#954024" d="M707.303,111.467l0.129-109.31l-6.598-0.007l-0.129,109.309c-0.031,26.216,21.195,47.492,47.41,47.523
		c26.216,0.031,47.492-21.196,47.523-47.411L707.303,111.467z"/>
</g>
</svg>
