<svg width="80" height="75" viewBox="0 0 80 75" xmlns="http://www.w3.org/2000/svg"><title>common/sitelogo</title><g fill="none"><path fill="#1A274B" d="M16.37 14.19L8.211.018 0 14.173l7.507.017-.018 10.247-7.084-.018v1.373H7.49v9.138L.123 37.113l.37 1.302 15.718-4.63-.387-1.303-6.978 2.06.017-8.75 7.084.018v-1.373H8.863V14.19zm20.529 5.264V18.1l-12.353-.018-.634-3.873h9.762v-1.356l-9.991-.017-1.727-10.758-1.357.23 1.71 10.528h-4.177v1.355l4.405.018.617 3.873-5.022-.018v1.374h5.251l1.674 10.334-6.942 2.042.387 1.303 6.767-1.99 1.18 7.307 1.357-.229-1.216-7.465 9.903-2.922-.387-1.303-9.745 2.852-1.603-9.93z"/><ellipse fill="#1A274B" transform="rotate(-89.933 3.334 29.948)" cx="3.334" cy="29.948" rx="1.427" ry="1.426"/><ellipse fill="#1A274B" transform="rotate(-89.932 13.015 29.96)" cx="13.015" cy="29.96" rx="1.427" ry="1.426"/><ellipse fill="#1A274B" transform="rotate(-89.932 28.27 5.118)" cx="28.269" cy="5.118" rx="3.031" ry="3.028"/><path d="M61.304 19.419l18.608.018V18.08l-17.463-.018 1.692-2.007 10.855.018V1.919h-1.357l-15.207-.018-.018 14.155h3.947l-1.691 2.007h-7.172v1.356h6.026l-6.026 7.13 1.04.88 3.118-3.697h5.234l-.018 12.94h1.357l.018-12.94h4.986l-.017 12.94h1.357l.017-12.94 7.93.018-.018 12.94h1.357l.018-14.313H78.52l-8.353-.018h-.951l-10.45-.017 2.538-2.923zM73.656 7.958l-13.85-.018v-4.7l13.85.017v4.7zM59.79 14.683V9.296l13.85.017v5.388l-10.115-.018H59.79z" fill="#1A274B"/><ellipse fill="#1A274B" transform="rotate(-89.932 51.043 4.907)" cx="51.043" cy="4.907" rx="3.031" ry="3.028"/><ellipse fill="#1A274B" transform="rotate(-89.932 45.962 13.003)" cx="45.962" cy="13.003" rx="3.031" ry="3.028"/><ellipse fill="#1A274B" transform="rotate(-89.932 47.986 31.595)" cx="47.986" cy="31.595" rx="5.093" ry="5.088"/><path fill="#9B4124" d="M1.833 61.004L14.379 46.18l-.987-.845L.846 60.176 0 61.162l15.718 13.275.846-1.004z"/><ellipse fill="#9B4124" transform="rotate(-44.935 18.267 47.653)" cx="18.267" cy="47.653" rx="2.379" ry="2.377"/><ellipse fill="#9B4124" transform="rotate(-44.935 20.866 53.626)" cx="20.866" cy="53.626" rx="2.379" ry="2.377"/><ellipse fill="#9B4124" transform="rotate(-44.935 39.685 47.695)" cx="39.685" cy="47.695" rx="2.379" ry="2.377"/><path d="M43.542 56.954L32.3 56.937l.017-11.638h-1.233l-.018 11.638v1.232l12.493.018-.017 16.62c4.934 0 8.934-3.98 8.951-8.91-.017-4.929-4.017-8.925-8.951-8.943zm19.736 8.944l.017-20.581h-1.25l-.019 20.58c0 4.93 4 8.945 8.934 8.945 4.934 0 8.952-3.997 8.952-8.927l-16.634-.017z" fill="#9B4124"/></g></svg>