<?xml version="1.0" encoding="utf-8"?>
<!-- Generator: Adobe Illustrator 16.0.4, SVG Export Plug-In . SVG Version: 6.00 Build 0)  -->
<!DOCTYPE svg PUBLIC "-//W3C//DTD SVG 1.1//EN" "http://www.w3.org/Graphics/SVG/1.1/DTD/svg11.dtd">
<svg version="1.1" id="レイヤー_1" xmlns="http://www.w3.org/2000/svg" xmlns:xlink="http://www.w3.org/1999/xlink" x="0px"
	 y="0px" width="42.6px" height="15px" viewBox="0 0 42.6 15" enable-background="new 0 0 42.6 15" xml:space="preserve">
<g>
	<path fill="#4A4A4A" d="M14.718,0.1h-2.188c-0.336,0-0.607,0.271-0.607,0.607v13.587c0,0.334,0.271,0.606,0.607,0.606h2.188
		c0.335,0,0.607-0.271,0.607-0.606V0.707C15.326,0.372,15.053,0.1,14.718,0.1"/>
	<path fill="#4A4A4A" d="M29.773,0.1h-2.188c-0.334,0-0.607,0.271-0.607,0.607v8.071L20.751,0.37
		c-0.014-0.021-0.031-0.042-0.048-0.061c0-0.002-0.002-0.004-0.003-0.005c-0.011-0.013-0.023-0.024-0.036-0.037
		c-0.003-0.003-0.007-0.007-0.011-0.01c-0.01-0.01-0.021-0.019-0.032-0.027c-0.005-0.005-0.011-0.008-0.016-0.013
		c-0.01-0.007-0.02-0.014-0.032-0.021c-0.006-0.003-0.013-0.006-0.018-0.01c-0.011-0.006-0.022-0.013-0.033-0.019
		c-0.006-0.003-0.012-0.006-0.02-0.009c-0.011-0.005-0.022-0.01-0.035-0.015c-0.006-0.002-0.012-0.004-0.019-0.006
		c-0.012-0.004-0.024-0.008-0.037-0.012c-0.007-0.002-0.013-0.004-0.021-0.005c-0.011-0.003-0.023-0.006-0.035-0.008
		c-0.009-0.002-0.017-0.003-0.026-0.004c-0.011-0.001-0.021-0.003-0.032-0.004c-0.011-0.001-0.021-0.001-0.032-0.002
		c-0.007,0-0.014-0.001-0.021-0.001h-2.187c-0.335,0-0.608,0.271-0.608,0.607v13.587c0,0.334,0.273,0.606,0.608,0.606h2.187
		c0.336,0,0.608-0.271,0.608-0.606v-8.07l6.234,8.419c0.042,0.061,0.095,0.11,0.153,0.149c0.002,0.002,0.005,0.003,0.007,0.006
		c0.012,0.008,0.024,0.015,0.037,0.022c0.006,0.003,0.011,0.006,0.018,0.009c0.008,0.005,0.019,0.01,0.029,0.014
		c0.009,0.004,0.019,0.009,0.028,0.013c0.006,0.002,0.013,0.005,0.02,0.007c0.013,0.004,0.027,0.01,0.041,0.013
		c0.002,0,0.005,0.001,0.008,0.001c0.05,0.014,0.103,0.021,0.155,0.021h2.188c0.335,0,0.607-0.271,0.607-0.606V0.707
		C30.38,0.372,30.108,0.1,29.773,0.1"/>
	<path fill="#4A4A4A" d="M9.445,11.498H3.502V0.707C3.502,0.372,3.23,0.1,2.895,0.1H0.708C0.372,0.1,0.1,0.372,0.1,0.707v13.585
		v0.001c0,0.163,0.065,0.31,0.17,0.419c0.003,0.003,0.005,0.007,0.008,0.009c0.002,0.002,0.005,0.006,0.008,0.008
		c0.109,0.104,0.257,0.169,0.42,0.169h0.001h8.737c0.335,0,0.606-0.272,0.606-0.607v-2.188C10.052,11.77,9.78,11.498,9.445,11.498"
		/>
	<path fill="#4A4A4A" d="M41.852,3.502c0.335,0,0.606-0.272,0.606-0.607V0.708c0-0.336-0.271-0.608-0.606-0.608h-8.737h-0.001
		c-0.164,0-0.313,0.065-0.422,0.171c-0.002,0.003-0.004,0.005-0.006,0.007c-0.003,0.002-0.006,0.006-0.01,0.01
		c-0.104,0.109-0.168,0.256-0.168,0.419v0.001v13.584v0.001c0,0.163,0.064,0.31,0.169,0.419c0.003,0.003,0.005,0.007,0.009,0.009
		c0.002,0.004,0.006,0.006,0.009,0.009c0.109,0.104,0.256,0.169,0.419,0.169h0.001h8.737c0.335,0,0.606-0.272,0.606-0.607v-2.188
		c0-0.335-0.271-0.607-0.606-0.607h-5.943V9.201h5.943c0.335,0,0.606-0.272,0.606-0.608V6.407c0-0.336-0.271-0.608-0.606-0.608
		h-5.943V3.502H41.852z"/>
</g>
</svg>
