<?xml version="1.0" encoding="UTF-8"?>
<svg width="16px" height="14px" viewBox="0 0 16 14" version="1.1" xmlns="http://www.w3.org/2000/svg" xmlns:xlink="http://www.w3.org/1999/xlink">
    <!-- Generator: sketchtool 44.1 (41455) - http://www.bohemiancoding.com/sketch -->
    <title>common/ico_twitter</title>
    <desc>Created with sketchtool.</desc>
    <defs></defs>
    <g id="Symbols" stroke="none" stroke-width="1" fill="none" fill-rule="evenodd">
        <g id="nav" transform="translate(-52.000000, -760.000000)" fill="#4A4A4A">
            <path d="M66.1151611,762.108102 C66.7932148,761.692067 67.3134942,761.032382 67.5586077,760.246539 C66.9237542,760.631756 66.2222222,760.912002 65.4727945,761.062237 C64.8755063,760.40833 64.0218348,760 63.0770676,760 C61.265481,760 59.7957387,761.507163 59.7957387,763.365836 C59.7957387,763.62971 59.8239127,763.885879 59.8802606,764.132418 C57.1520808,763.991814 54.7338146,762.653184 53.1138111,760.614422 C52.8311322,761.113278 52.6696015,761.692067 52.6696015,762.308415 C52.6696015,763.475623 53.2490462,764.506079 54.1299525,765.109907 C53.5927687,765.093536 53.0856371,764.940412 52.6423666,764.69002 L52.6423666,764.731431 C52.6423666,766.362827 53.7740212,767.723607 55.2766332,768.03178 C55.0014674,768.11075 54.7112755,768.150235 54.4116922,768.150235 C54.2003874,768.150235 53.9937782,768.130011 53.793743,768.090526 C54.211657,769.42723 55.4231379,770.400867 56.8600106,770.426869 C55.7368081,771.330203 54.3205963,771.868545 52.7832365,771.868545 C52.5184011,771.868545 52.2563832,771.853136 52,771.822319 C53.4528379,772.775731 55.1789634,773.333333 57.0318718,773.333333 C63.0704936,773.333333 66.3715443,768.205128 66.3715443,763.756832 C66.3715443,763.610449 66.3687269,763.464066 66.3630921,763.320573 C67.0045196,762.845793 67.5614251,762.253521 68,761.578428 C67.4121031,761.846154 66.7791278,762.027206 66.1151611,762.108102 Z" id="common/ico_twitter"></path>
        </g>
    </g>
</svg>