<?xml version="1.0" encoding="utf-8"?>
<!-- Generator: Adobe Illustrator 16.0.4, SVG Export Plug-In . SVG Version: 6.00 Build 0)  -->
<!DOCTYPE svg PUBLIC "-//W3C//DTD SVG 1.1//EN" "http://www.w3.org/Graphics/SVG/1.1/DTD/svg11.dtd">
<svg version="1.1" id="レイヤー_1" xmlns="http://www.w3.org/2000/svg" xmlns:xlink="http://www.w3.org/1999/xlink" x="0px"
	 y="0px" width="15px" height="15px" viewBox="0 0 15 15" enable-background="new 0 0 15 15" xml:space="preserve">
<title>common/ico_facebook</title>
<desc>Created with sketchtool.</desc>
<g id="Symbols">
	<g id="nav" transform="translate(-19.000000, -758.000000)">
		<path id="common_x2F_ico_x5F_facebook" fill="#FFFFFF" d="M27.012,773h-7.184c-0.458,0-0.828-0.371-0.828-0.828v-13.344
			c0-0.458,0.371-0.828,0.828-0.828h13.344c0.457,0,0.828,0.371,0.828,0.828v13.344c0,0.457-0.371,0.828-0.828,0.828H29.35v-5.809
			h1.949l0.293-2.264H29.35v-1.445c0-0.655,0.182-1.102,1.122-1.102l1.198,0v-2.025c-0.207-0.027-0.918-0.089-1.746-0.089
			c-1.729,0-2.912,1.055-2.912,2.992v1.669h-1.955v2.264h1.955V773L27.012,773z"/>
	</g>
</g>
</svg>
