<?xml version="1.0" encoding="utf-8"?>
<!-- Generator: Adobe Illustrator 16.0.4, SVG Export Plug-In . SVG Version: 6.00 Build 0)  -->
<!DOCTYPE svg PUBLIC "-//W3C//DTD SVG 1.1//EN" "http://www.w3.org/Graphics/SVG/1.1/DTD/svg11.dtd">
<svg version="1.1" id="レイヤー_1" xmlns="http://www.w3.org/2000/svg" xmlns:xlink="http://www.w3.org/1999/xlink" x="0px"
	 y="0px" width="15px" height="15px" viewBox="0 0 15 15" enable-background="new 0 0 15 15" xml:space="preserve">
<path fill="#FFFFFF" d="M14.9,6.455c0-3.311-3.319-6.005-7.4-6.005c-4.08,0-7.4,2.694-7.4,6.005c0,2.968,2.633,5.456,6.188,5.924
	c0.241,0.053,0.569,0.159,0.652,0.365c0.075,0.188,0.049,0.48,0.024,0.669c0,0-0.087,0.523-0.106,0.633
	c-0.032,0.188-0.148,0.732,0.641,0.4c0.79-0.334,4.262-2.51,5.814-4.297h0C14.386,8.974,14.9,7.78,14.9,6.455z M4.89,8.223
	c0,0.079-0.065,0.145-0.144,0.145H2.672l0,0c-0.039,0-0.074-0.016-0.1-0.041c0,0-0.001-0.001-0.002-0.002
	c-0.001,0-0.001-0.002-0.002-0.002c-0.024-0.025-0.041-0.061-0.041-0.1l0,0V4.999c0-0.08,0.065-0.145,0.144-0.145h0.52
	c0.079,0,0.144,0.064,0.144,0.145V7.56h1.41c0.079,0,0.144,0.064,0.144,0.144V8.223z M6.14,8.223c0,0.08-0.064,0.145-0.144,0.145
	H5.478c-0.08,0-0.145-0.064-0.145-0.145V4.999c0-0.079,0.065-0.144,0.145-0.144h0.519c0.08,0,0.144,0.064,0.144,0.144V8.223z
	 M9.714,8.223c0,0.08-0.064,0.145-0.144,0.145H9.051c-0.013,0-0.025-0.003-0.037-0.006c0,0-0.001,0-0.002,0
	C9.008,8.36,9.005,8.359,9.001,8.358C9,8.357,8.999,8.357,8.997,8.356C8.994,8.355,8.992,8.354,8.99,8.354
	C8.988,8.353,8.985,8.352,8.983,8.351C8.982,8.35,8.981,8.35,8.979,8.348C8.977,8.346,8.973,8.344,8.97,8.342c0,0-0.001,0-0.001,0
	C8.955,8.332,8.943,8.32,8.932,8.306L7.452,6.308v1.915c0,0.08-0.064,0.145-0.144,0.145H6.789c-0.079,0-0.144-0.064-0.144-0.145
	V4.999c0-0.079,0.065-0.144,0.144-0.144h0.519c0.002,0,0.004,0,0.005,0c0.003,0,0.005,0,0.007,0c0.003,0,0.005,0,0.008,0.001
	c0.002,0,0.003,0,0.005,0c0.003,0,0.006,0.001,0.008,0.002c0.002,0,0.004,0,0.006,0.001c0.003,0,0.005,0.001,0.008,0.002
	c0.001,0,0.003,0.001,0.005,0.001c0.002,0.001,0.005,0.002,0.008,0.004c0.001,0,0.003,0.001,0.004,0.002
	c0.003,0.001,0.005,0.003,0.008,0.004c0.001,0.001,0.003,0.002,0.005,0.004c0.002,0.001,0.005,0.003,0.007,0.004
	c0.001,0.001,0.002,0.002,0.004,0.003C7.4,4.887,7.403,4.889,7.405,4.892c0,0,0.001,0.001,0.003,0.002
	c0.003,0.003,0.005,0.005,0.008,0.009l0,0c0.005,0.004,0.009,0.01,0.012,0.015l1.478,1.996V4.999c0-0.079,0.064-0.144,0.144-0.144
	H9.57c0.08,0,0.144,0.064,0.144,0.144V8.223z M12.579,5.518c0,0.08-0.064,0.145-0.144,0.145h-1.411v0.544h1.411
	c0.08,0,0.144,0.065,0.144,0.145V6.87c0,0.08-0.064,0.145-0.144,0.145h-1.411V7.56h1.411c0.08,0,0.144,0.064,0.144,0.144v0.519
	c0,0.079-0.064,0.145-0.144,0.145h-2.074l0,0c-0.039,0-0.074-0.016-0.1-0.041c0,0-0.001-0.001-0.002-0.002
	c0,0-0.001-0.002-0.002-0.002c-0.025-0.025-0.04-0.061-0.04-0.1l0,0V4.999l0,0c0-0.039,0.015-0.074,0.04-0.1
	c0,0,0.001-0.001,0.002-0.002c0,0,0.001-0.001,0.002-0.001c0.026-0.025,0.062-0.041,0.1-0.041l0,0h2.074
	c0.08,0,0.144,0.065,0.144,0.145V5.518z"/>
</svg>
