<?xml version="1.0" encoding="utf-8"?>
<!-- Generator: Adobe Illustrator 16.0.4, SVG Export Plug-In . SVG Version: 6.00 Build 0)  -->
<!DOCTYPE svg PUBLIC "-//W3C//DTD SVG 1.1//EN" "http://www.w3.org/Graphics/SVG/1.1/DTD/svg11.dtd">
<svg version="1.1" id="レイヤー_1" xmlns="http://www.w3.org/2000/svg" xmlns:xlink="http://www.w3.org/1999/xlink" x="0px"
	 y="0px" width="16px" height="14px" viewBox="0 0 16 14" enable-background="new 0 0 16 14" xml:space="preserve">
<title>common/ico_twitter</title>
<desc>Created with sketchtool.</desc>
<g id="Symbols">
	<g id="nav" transform="translate(-52.000000, -760.000000)">
		<path id="common_x2F_ico_x5F_twitter" fill="#FFFFFF" d="M66.115,762.108c0.678-0.416,1.198-1.076,1.443-1.861
			c-0.635,0.385-1.336,0.666-2.086,0.816c-0.598-0.654-1.451-1.062-2.396-1.062c-1.812,0-3.281,1.507-3.281,3.366
			c0,0.264,0.028,0.52,0.084,0.767c-2.729-0.141-5.146-1.479-6.767-3.518c-0.283,0.499-0.444,1.078-0.444,1.694
			c0,1.167,0.58,2.197,1.46,2.801c-0.537-0.016-1.044-0.169-1.487-0.42v0.042c0,1.631,1.131,2.992,2.634,3.3
			c-0.275,0.08-0.565,0.119-0.865,0.119c-0.211,0-0.418-0.021-0.618-0.061c0.417,1.338,1.629,2.311,3.066,2.337
			c-1.123,0.903-2.539,1.442-4.077,1.442c-0.265,0-0.527-0.016-0.783-0.047c1.453,0.953,3.179,1.512,5.032,1.512
			c6.039,0,9.339-5.129,9.339-9.577c0-0.146-0.002-0.293-0.008-0.437c0.641-0.475,1.198-1.067,1.637-1.742
			C67.412,761.846,66.779,762.027,66.115,762.108z"/>
	</g>
</g>
</svg>
